<?xml version="1.0" encoding="UTF-8" standalone="no"?>
<!-- Created with Inkscape (http://www.inkscape.org/) -->

<svg
   width="98"
   height="98"
   viewBox="0 0 25.929167 25.929166"
   version="1.1"
   id="svg5"
   inkscape:version="1.4 (e7c3feb100, 2024-10-09)"
   sodipodi:docname="channel-art.svg"
   inkscape:export-filename="channel-art.png"
   inkscape:export-xdpi="98.521217"
   inkscape:export-ydpi="98.521217"
   xmlns:inkscape="http://www.inkscape.org/namespaces/inkscape"
   xmlns:sodipodi="http://sodipodi.sourceforge.net/DTD/sodipodi-0.dtd"
   xmlns="http://www.w3.org/2000/svg"
   xmlns:svg="http://www.w3.org/2000/svg">
  <sodipodi:namedview
     id="namedview7"
     pagecolor="#ffffff"
     bordercolor="#666666"
     borderopacity="1.0"
     inkscape:pageshadow="2"
     inkscape:pageopacity="0.0"
     inkscape:pagecheckerboard="0"
     inkscape:document-units="px"
     showgrid="false"
     inkscape:zoom="4.0113041"
     inkscape:cx="59.207678"
     inkscape:cy="63.694997"
     inkscape:window-width="1920"
     inkscape:window-height="1008"
     inkscape:window-x="0"
     inkscape:window-y="0"
     inkscape:window-maximized="1"
     inkscape:current-layer="layer1"
     inkscape:showpageshadow="2"
     inkscape:deskcolor="#d1d1d1" />
  <defs
     id="defs2">
    <rect
       x="286.52673"
       y="739.60144"
       width="1240.2292"
       height="255.00549"
       id="rect57034" />
    <rect
       x="45.61689"
       y="1889.67"
       width="1103.8832"
       height="505.13275"
       id="rect27109" />
    <rect
       x="-37.654228"
       y="1932.6265"
       width="1378.7675"
       height="450.36298"
       id="rect22615" />
    <rect
       x="899.31799"
       y="2309.9629"
       width="434.41727"
       height="88.734207"
       id="rect17395" />
    <rect
       x="469.78787"
       y="2031.1899"
       width="249.95409"
       height="242.63319"
       id="rect16465" />
    <filter
       inkscape:collect="always"
       style="color-interpolation-filters:sRGB"
       id="filter2516"
       x="-0.75378438"
       y="-0.75378438"
       width="2.5075688"
       height="2.5075688">
      <feGaussianBlur
         inkscape:collect="always"
         stdDeviation="0.61103761"
         id="feGaussianBlur2518" />
    </filter>
    <filter
       inkscape:collect="always"
       style="color-interpolation-filters:sRGB"
       id="filter3059"
       x="-0.079235593"
       y="-0.069489706"
       width="1.1584712"
       height="1.1389794">
      <feGaussianBlur
         inkscape:collect="always"
         stdDeviation="0.81623897"
         id="feGaussianBlur3061" />
    </filter>
  </defs>
  <g
     inkscape:label="Layer 1"
     inkscape:groupmode="layer"
     id="layer1">
    <g
       id="g2"
       transform="matrix(0.08789223,0,0,0.08789223,-26.339812,7.9331438)">
      <path
         id="rect97"
         style="fill:#24221c;fill-opacity:1;stroke:#004455;stroke-width:1.8261"
         d="M 210,-179.94295 H 684.37702 V 294.43406 H 210 Z" />
      <g
         id="g3452"
         transform="matrix(13.031617,0,0,13.031617,-12.187232,-554.89765)">
        <g
           id="g1927"
           transform="matrix(0.64330427,0,0,0.64330427,-8.4519113,14.373585)"
           style="opacity:0.99;stroke:#ffcc00">
          <ellipse
             style="fill:none;stroke:#ffcc00;stroke-width:0.481055;stroke-miterlimit:4;stroke-dasharray:none"
             id="path1838"
             cx="84.223251"
             cy="9.8630028"
             rx="15.825913"
             ry="4.5682745"
             transform="rotate(30)" />
          <ellipse
             style="fill:none;stroke:#ffcc00;stroke-width:0.481061;stroke-miterlimit:4;stroke-dasharray:none"
             id="ellipse1920"
             cx="-50.653297"
             cy="68.008179"
             rx="15.826115"
             ry="4.5683327"
             transform="rotate(-90)" />
          <ellipse
             style="fill:none;stroke:#ffcc00;stroke-width:0.481055;stroke-miterlimit:4;stroke-dasharray:none"
             id="ellipse1922"
             cx="-33.570015"
             cy="77.870979"
             rx="15.825913"
             ry="4.5682745"
             transform="matrix(-0.8660254,0.5,0.5,0.8660254,0,0)" />
        </g>
        <g
           id="g2522"
           transform="translate(-14.815344,5.2571168)">
          <circle
             style="fill:#ffff00;stroke:#ffff00;stroke-width:0.264583;stroke-miterlimit:4;stroke-dasharray:none"
             id="path2059"
             cx="50.074715"
             cy="41.570114"
             r="0.90866613" />
          <circle
             style="mix-blend-mode:normal;fill:#ffff00;stroke:#ffff00;stroke-width:0.31352;stroke-miterlimit:4;stroke-dasharray:none;filter:url(#filter2516)"
             id="circle2457"
             cx="50.105606"
             cy="41.599556"
             r="1.0767338" />
        </g>
        <g
           id="g3057"
           transform="matrix(0.64330427,0,0,0.64330427,-8.4519113,14.373585)"
           style="opacity:0.726945;stroke:#ffff00;stroke-opacity:1;filter:url(#filter3059)">
          <ellipse
             style="fill:none;stroke:#ffff00;stroke-width:0.481055;stroke-miterlimit:4;stroke-dasharray:none;stroke-opacity:1"
             id="ellipse3051"
             cx="84.223251"
             cy="9.8630028"
             rx="15.825913"
             ry="4.5682745"
             transform="rotate(30)" />
          <ellipse
             style="fill:none;stroke:#ffff00;stroke-width:0.481061;stroke-miterlimit:4;stroke-dasharray:none;stroke-opacity:1"
             id="ellipse3053"
             cx="-50.653297"
             cy="68.008179"
             rx="15.826115"
             ry="4.5683327"
             transform="rotate(-90)" />
          <ellipse
             style="fill:none;stroke:#ffff00;stroke-width:0.481055;stroke-miterlimit:4;stroke-dasharray:none;stroke-opacity:1"
             id="ellipse3055"
             cx="-33.570015"
             cy="77.870979"
             rx="15.825913"
             ry="4.5682745"
             transform="matrix(-0.8660254,0.5,0.5,0.8660254,0,0)" />
        </g>
      </g>
    </g>
    <text
       xml:space="preserve"
       transform="scale(0.26458333)"
       id="text16463"
       style="font-style:normal;font-weight:normal;font-size:40px;line-height:1.25;font-family:sans-serif;white-space:pre;shape-inside:url(#rect16465);fill:#000000;fill-opacity:1;stroke:none" />
    <text
       xml:space="preserve"
       transform="scale(0.26458333)"
       id="text17393"
       style="font-style:normal;font-weight:normal;font-size:40px;line-height:1.25;font-family:sans-serif;white-space:pre;shape-inside:url(#rect17395);fill:#000000;fill-opacity:1;stroke:none" />
    <text
       xml:space="preserve"
       transform="scale(0.26458333)"
       id="text22613"
       style="font-style:normal;font-weight:normal;font-size:40px;line-height:1.25;font-family:sans-serif;white-space:pre;shape-inside:url(#rect22615);fill:#000000;fill-opacity:1;stroke:none" />
    <g
       id="g92347"
       transform="matrix(11.307421,0,0,11.307421,-266.9287,-378.52149)" />
    <g
       id="g92819"
       transform="matrix(0.89226659,0,0,0.89226659,-2.49127,21.530635)" />
    <g
       id="g3"
       transform="translate(-710.09361,-45.501186)">
      <rect
         style="fill:#24221c;fill-opacity:1;stroke:#24221c;stroke-width:0.581505;stroke-miterlimit:4;stroke-dasharray:none;stroke-opacity:1"
         id="rect9943"
         width="686.12122"
         height="385.68878"
         x="-66.911308"
         y="-42.382999"
         transform="rotate(-0.11424122)"
         inkscape:export-filename="/home/leandro/Pictures/channel-banner.png"
         inkscape:export-xdpi="96"
         inkscape:export-ydpi="96" />
      <g
         aria-label="PhilSciMath"
         transform="matrix(0.41903279,0,0,0.41903279,97.961174,-688.40159)"
         id="text27107"
         style="font-size:144px;line-height:1.25;white-space:pre;shape-inside:url(#rect27109);fill:#ffffff;stroke:#ffffff">
        <path
           d="m 125.07031,1949.2949 c 0,-16.0312 -14.76562,-25.0312 -32.343748,-25.0312 -8.296875,0 -15.75,0.4218 -21.65625,0.4218 -5.90625,0 -13.78125,0 -20.109375,-0.4218 -0.5625,0.8437 -0.703125,4.2187 0,5.2031 1.828125,0.1406 8.296875,0.4219 9,2.25 1.125,2.8125 1.125,7.1719 1.125,13.2187 v 51.75 c 0,6.0469 0,10.4063 -1.125,13.2188 -0.703125,1.8281 -7.171875,2.3906 -9,2.5312 -0.703125,0.9844 -0.5625,4.3594 0,5.2032 5.484375,-0.5625 13.921875,-0.9844 19.828125,-0.9844 5.90625,0 14.625,0.4219 20.109375,0.9844 0.5625,-0.8438 0.703125,-4.2188 0,-5.2032 -1.828125,-0.1406 -8.296875,-0.7031 -9,-2.5312 -1.125,-2.8125 -1.125,-7.1719 -1.125,-13.2188 v -56.5312 c 0,-4.0781 0,-6.8906 0.703125,-8.5781 0.703125,-1.5469 3.796875,-1.6875 7.03125,-1.6875 9.421875,0 15.609378,10.2656 15.609378,21.375 0,10.8281 -4.921878,18.2812 -11.812503,18.2812 -2.109375,0 -4.359375,-0.1406 -5.765625,-0.5625 -0.28125,0 -0.421875,0.4219 -0.421875,0.9844 0,1.125 0.421875,2.9531 0.984375,3.5156 0.984375,0.9844 4.640625,3.2344 9.703125,3.2344 14.203123,0 28.265623,-10.5469 28.265623,-27.4219 z"
           style="font-weight:bold;font-family:Crimson;-inkscape-font-specification:'Crimson Bold'"
           id="path53831" />
        <path
           d="m 179.49219,1954.3574 c -6.46875,0 -15.89063,6.0469 -19.82813,10.5469 -0.28125,0.2812 -0.70312,0.7031 -0.98437,0.7031 -0.14063,-0.1406 -0.14063,-0.4219 -0.14063,-0.8437 v -28.6875 c 0,-5.625 1.54688,-14.3438 1.54688,-14.3438 -0.14063,-0.7031 -1.26563,-2.25 -2.10938,-2.3906 -0.42187,0 -11.39062,4.0781 -27.14062,5.4844 -0.70313,0.5625 -0.5625,4.5 0,4.5 1.6875,0 7.73437,0.8437 8.4375,2.5312 0.98437,2.3906 0.98437,4.3594 0.98437,6.75 v 58.0781 c 0,6.0469 0,10.4063 -1.125,13.2188 -0.70312,1.8281 -7.17187,2.3906 -9,2.5312 -0.70312,0.9844 -0.5625,4.3594 0,5.2032 5.48438,-0.5625 13.35938,-0.9844 19.26563,-0.9844 5.90625,0 12.79687,0.4219 18.28125,0.9844 0.5625,-0.8438 0.70312,-4.2188 0,-5.2032 -1.82813,-0.1406 -7.3125,-0.7031 -8.01563,-2.5312 -1.125,-2.8125 -1.125,-8.0156 -1.125,-13.2188 v -23.0625 c 0,-2.8125 6.75,-7.875 12.375,-7.875 7.45313,0 9.42188,9.7032 9.42188,19.8282 v 11.1093 c 0,6.0469 0,10.4063 -1.125,13.2188 -0.70313,1.8281 -5.48438,2.3906 -7.3125,2.5312 -0.70313,0.9844 -0.5625,4.3594 0,5.2032 5.48437,-0.5625 11.67187,-0.9844 17.57812,-0.9844 5.90625,0 13.78125,0.4219 19.26563,0.9844 0.5625,-0.8438 0.70312,-4.2188 0,-5.2032 -1.82813,-0.1406 -8.29688,-0.7031 -9,-2.5312 -1.125,-2.8125 -1.125,-7.1719 -1.125,-13.2188 v -9.1406 c 0,-22.2187 -3.09375,-33.1875 -19.125,-33.1875 z"
           style="font-weight:bold;font-family:Crimson;-inkscape-font-specification:'Crimson Bold'"
           id="path53833" />
        <path
           d="m 242.35156,1973.623 c 0,-0.8437 0,-5.7656 0.14063,-8.8593 0.14062,-1.9688 0.98437,-6.8907 1.40625,-8.0157 0,-0.4218 -1.40625,-2.1093 -2.39063,-2.3906 -5.34375,2.6719 -16.73437,6.6094 -27.42187,7.4531 -0.70313,0 -0.5625,4.0782 -0.14063,4.3594 0.98438,0 7.73438,0.7031 8.85938,2.8125 1.125,2.1094 1.26562,10.125 1.26562,11.5313 v 16.1718 c 0,6.0469 0,10.4063 -1.125,13.2188 -0.70312,1.8281 -7.17187,2.3906 -9,2.5312 -0.70312,0.9844 -0.5625,4.3594 0,5.2032 5.48438,-0.5625 13.35938,-0.9844 19.26563,-0.9844 5.90625,0 12.79687,0.4219 18.28125,0.9844 0.5625,-0.8438 0.70312,-4.2188 0,-5.2032 -1.82813,-0.1406 -7.3125,-0.7031 -8.01563,-2.5312 -1.125,-2.8125 -1.125,-8.0156 -1.125,-13.2188 z m -20.67187,-43.1718 c 0,5.625 4.5,10.125 10.125,10.125 5.625,0 10.26562,-4.5 10.26562,-10.125 0,-5.625 -4.64062,-10.125 -10.26562,-10.125 -5.625,0 -10.125,4.5 -10.125,10.125 z"
           style="font-weight:bold;font-family:Crimson;-inkscape-font-specification:'Crimson Bold'"
           id="path53835" />
        <path
           d="m 266.53906,1938.6074 v 58.0781 c 0,6.0469 0,10.4063 -1.125,13.2188 -0.70312,1.8281 -7.17187,2.3906 -9,2.5312 -0.70312,0.9844 -0.5625,4.3594 0,5.2032 5.48438,-0.5625 13.35938,-0.9844 19.26563,-0.9844 5.90625,0 13.78125,0.4219 19.26562,0.9844 0.5625,-0.8438 0.70313,-4.2188 0,-5.2032 -1.82812,-0.1406 -8.29687,-0.7031 -9,-2.5312 -1.125,-2.8125 -1.125,-7.1719 -1.125,-13.2188 v -60.6093 c 0,-5.625 1.54688,-14.3438 1.54688,-14.3438 -0.14063,-0.7031 -1.26563,-2.25 -2.10938,-2.3906 -0.42187,0 -11.39062,4.0781 -27.14062,5.4844 -0.70313,0.5625 -0.5625,4.5 0,4.5 1.6875,0 7.73437,0.8437 8.4375,2.5312 0.98437,2.3906 0.98437,4.3594 0.98437,6.75 z"
           style="font-weight:bold;font-family:Crimson;-inkscape-font-specification:'Crimson Bold'"
           id="path53837" />
        <path
           d="m 334.74219,1922.8574 c -14.48438,0 -29.95313,10.9688 -29.95313,25.4531 0,14.625 10.26563,20.8125 20.53125,27.7032 7.03125,4.7812 20.8125,12.9375 20.8125,22.9218 0,9.9844 -6.46875,13.6407 -13.64062,13.6407 -12.65625,0 -21.51563,-14.9063 -22.78125,-22.5 -0.14063,-0.8438 -0.84375,-1.125 -1.82813,-1.125 -0.70312,0 -3.51562,1.125 -4.07812,1.9687 0.28125,3.9375 1.96875,17.7188 3.375,23.9063 8.4375,1.9687 18.42187,3.6562 26.71875,3.6562 15.46875,0 30.65625,-10.5469 30.65625,-26.0156 0,-16.7344 -11.39063,-22.7813 -20.67188,-28.9688 -8.57812,-5.7656 -20.39062,-13.7812 -20.39062,-22.5 0,-9.4218 6.46875,-12.2343 11.95312,-12.2343 10.82813,0 17.57813,13.3593 18.70313,21.2343 0.28125,1.125 3.79687,0.9844 4.21875,0.9844 0.5625,0 1.125,-0.2812 1.54687,-0.8437 -0.42187,-8.5782 -0.84375,-15.8907 -1.54687,-23.3438 -8.57813,-1.8281 -15.32813,-3.9375 -23.625,-3.9375 z"
           style="font-weight:bold;font-family:Crimson;-inkscape-font-specification:'Crimson Bold'"
           id="path53839" />
        <path
           d="m 428.53906,1963.3574 c 0,-3.6562 -1.54687,-5.3437 -2.8125,-6.75 -1.54687,-0.9844 -6.46875,-2.5312 -14.20312,-2.5312 -19.40625,0 -36.70313,17.7187 -36.70313,34.875 0,18.4218 13.78125,29.3906 29.53125,29.3906 13.35938,0 22.92188,-9.7031 25.45313,-13.6406 0.28125,-0.4219 0.42187,-1.6875 0.42187,-2.6719 0,-0.8438 -0.70312,-2.25 -1.6875,-2.5313 -2.95312,3.2344 -7.59375,7.0313 -15.75,7.0313 -9,0 -20.25,-6.0469 -20.25,-25.7344 0,-8.5781 3.65625,-19.4062 9.84375,-19.4062 3.51563,0 7.17188,1.6875 9.5625,4.3593 2.25,2.5313 4.64063,6.3282 8.4375,6.3282 5.0625,0 8.15625,-4.6407 8.15625,-8.7188 z"
           style="font-weight:bold;font-family:Crimson;-inkscape-font-specification:'Crimson Bold'"
           id="path53841" />
        <path
           d="m 465.80469,1973.623 c 0,-0.8437 0,-5.7656 0.14062,-8.8593 0.14063,-1.9688 0.98438,-6.8907 1.40625,-8.0157 0,-0.4218 -1.40625,-2.1093 -2.39062,-2.3906 -5.34375,2.6719 -16.73438,6.6094 -27.42188,7.4531 -0.70312,0 -0.5625,4.0782 -0.14062,4.3594 0.98437,0 7.73437,0.7031 8.85937,2.8125 1.125,2.1094 1.26563,10.125 1.26563,11.5313 v 16.1718 c 0,6.0469 0,10.4063 -1.125,13.2188 -0.70313,1.8281 -7.17188,2.3906 -9,2.5312 -0.70313,0.9844 -0.5625,4.3594 0,5.2032 5.48437,-0.5625 13.35937,-0.9844 19.26562,-0.9844 5.90625,0 12.79688,0.4219 18.28125,0.9844 0.5625,-0.8438 0.70313,-4.2188 0,-5.2032 -1.82812,-0.1406 -7.3125,-0.7031 -8.01562,-2.5312 -1.125,-2.8125 -1.125,-8.0156 -1.125,-13.2188 z m -20.67188,-43.1718 c 0,5.625 4.5,10.125 10.125,10.125 5.625,0 10.26563,-4.5 10.26563,-10.125 0,-5.625 -4.64063,-10.125 -10.26563,-10.125 -5.625,0 -10.125,4.5 -10.125,10.125 z"
           style="font-weight:bold;font-family:Crimson;-inkscape-font-specification:'Crimson Bold'"
           id="path53843" />
        <path
           d="m 501.66406,1924.8262 c -6.46875,0 -8.71875,-0.5625 -15.1875,-0.8438 -0.28125,0.2813 -0.84375,4.0781 0,5.2031 2.39063,0 8.01563,1.5469 9.14063,3.0938 0.70312,0.9844 0.70312,2.1094 0.70312,3.0937 -0.28125,6.6094 -1.54687,43.3125 -2.39062,59.7657 -0.14063,2.25 -1.125,10.9687 -1.6875,12.375 -1.54688,3.6562 -10.26563,5.0625 -11.95313,5.0625 -0.42187,1.4062 -0.42187,4.0781 0.14063,5.0625 6.46875,-0.2813 11.10937,-1.125 17.57812,-1.125 6.1875,0 11.8125,0.8437 17.4375,1.125 0.42188,-1.4063 0.14063,-4.2188 -0.28125,-5.2032 -1.125,0 -11.39062,-1.5468 -12.23437,-4.5 -0.28125,-0.9843 -0.70313,-6.6093 -0.5625,-9.7031 0.84375,-22.0781 0.84375,-25.4531 1.82812,-54.7031 l 31.35938,73.5469 c 0.42187,0.1406 0.84375,0.2812 1.26562,0.2812 2.53125,0 5.625,-4.6406 6.04688,-5.9062 l 24.75,-66.9375 c 0.28125,-0.7032 0.42187,-0.9844 0.70312,-0.9844 0.98438,0 0.98438,3.2344 0.98438,3.6562 l 1.40625,49.0782 c 0.14062,2.5312 0.14062,7.1718 0.14062,8.5781 0,1.4062 -0.42187,3.7969 -1.125,4.9219 -1.26562,1.9687 -8.15625,2.6718 -9.84375,2.6718 -0.42187,1.125 -0.28125,4.6407 0.28125,5.2032 6.46875,-0.2813 15.60938,-1.125 22.07813,-1.125 6.1875,0 13.5,0.8437 19.125,1.125 0.42187,-1.4063 0.28125,-3.9375 -0.28125,-5.2032 -1.125,0 -8.01563,-0.5625 -8.85938,-2.5312 -1.40625,-3.6563 -1.54687,-8.7188 -1.82812,-14.2031 -0.84375,-18 -1.6875,-49.2188 -2.10938,-59.0625 -0.14062,-3.7969 0.5625,-4.7813 1.96875,-5.7657 1.40625,-0.9843 6.1875,-1.5468 7.3125,-1.5468 0.70313,-1.125 0,-4.7813 -0.5625,-5.3438 -5.625,0.2813 -11.67187,0.9844 -16.45312,0.9844 -2.67188,0 -13.92188,-0.2813 -15.1875,-0.4219 0,0 -2.39063,9.7031 -4.64063,15.75 -6.04687,16.875 -16.59375,42.75 -16.59375,42.75 0,0.1406 -0.42187,0.8438 -0.5625,0.8438 -0.14062,0 -0.5625,-0.2813 -0.5625,-0.2813 -10.54687,-23.9062 -22.5,-50.625 -26.57812,-59.625 -5.625,0.2813 -9.98438,0.8438 -14.76563,0.8438 z"
           style="font-weight:bold;font-family:Crimson;-inkscape-font-specification:'Crimson Bold'"
           id="path53845" />
        <path
           d="m 635.96094,2008.3574 c -3.65625,0 -8.4375,-2.6719 -8.57813,-8.7187 -0.14062,-3.0938 1.125,-6.8907 5.0625,-9.4219 2.8125,-1.8281 6.46875,-3.0938 9.28125,-4.5 v 19.6875 c 0,0.8437 -2.25,2.9531 -5.76562,2.9531 z m 2.95312,-54.4219 c -12.375,0 -25.03125,9 -26.85937,10.8282 -1.125,1.9687 -1.96875,3.9375 -1.96875,5.7656 0,3.9375 3.51562,6.75 7.3125,6.75 4.92187,0 7.17187,-2.9531 7.875,-6.1875 1.40625,-6.3281 2.8125,-11.8125 8.15625,-11.8125 4.92187,0 8.29687,7.0312 8.29687,14.0625 v 3.6562 2.9532 c -7.17187,2.6718 -20.67187,8.1562 -26.01562,9.8437 -3.65625,1.125 -7.3125,5.7656 -7.3125,11.25 0,8.2969 7.73437,17.1563 18.42187,17.1563 5.0625,0 14.625,-6.1875 15.89063,-7.3125 1.26562,3.375 6.04687,7.0312 10.6875,7.0312 5.90625,0 12.51562,-5.4844 14.48437,-7.3125 0.42188,-0.7031 0.5625,-1.125 0.5625,-2.1094 0,-0.8437 -0.42187,-2.1093 -0.98437,-2.3906 -0.5625,0.2813 -2.10938,1.4063 -4.07813,1.4063 -1.82812,0 -3.375,-1.9688 -3.375,-5.7657 v -26.2968 c 0,-12.6563 -9.42187,-21.5157 -21.09375,-21.5157 z"
           style="font-weight:bold;font-family:Crimson;-inkscape-font-specification:'Crimson Bold'"
           id="path53847" />
        <path
           d="m 700.22656,1956.8887 v -22.3594 c -0.14062,-0.8438 -1.96875,-0.9844 -3.51562,0 -4.35938,4.3594 -9.42188,10.4062 -14.76563,14.9062 v 7.4532 h -6.1875 c -1.6875,1.4062 -3.09375,2.8125 -4.5,4.7812 0,0.5625 0,1.5469 0.70313,1.8281 h 9.98437 v 34.0313 c 0,15.75 9.5625,20.5312 18.28125,20.5312 7.3125,0 13.64063,-6.3281 14.90625,-7.7343 0.28125,-0.2813 1.125,-1.9688 1.125,-2.6719 0,-0.7031 -0.70312,-1.6875 -0.98437,-1.9688 -0.42188,0.4219 -4.07813,3.375 -7.45313,3.375 -5.20312,0 -7.59375,-3.2343 -7.59375,-10.6875 v -34.875 h 13.64063 c 1.40625,-0.9843 3.23437,-3.5156 3.23437,-4.7812 0,-0.7031 -0.28125,-1.8281 -0.84375,-1.8281 z"
           style="font-weight:bold;font-family:Crimson;-inkscape-font-specification:'Crimson Bold'"
           id="path53849" />
        <path
           d="m 770.11719,1954.3574 c -6.46875,0 -15.89063,6.0469 -19.82813,10.5469 -0.28125,0.2812 -0.70312,0.7031 -0.98437,0.7031 -0.14063,-0.1406 -0.14063,-0.4219 -0.14063,-0.8437 v -28.6875 c 0,-5.625 1.54688,-14.3438 1.54688,-14.3438 -0.14063,-0.7031 -1.26563,-2.25 -2.10938,-2.3906 -0.42187,0 -11.39062,4.0781 -27.14062,5.4844 -0.70313,0.5625 -0.5625,4.5 0,4.5 1.6875,0 7.73437,0.8437 8.4375,2.5312 0.98437,2.3906 0.98437,4.3594 0.98437,6.75 v 58.0781 c 0,6.0469 0,10.4063 -1.125,13.2188 -0.70312,1.8281 -7.17187,2.3906 -9,2.5312 -0.70312,0.9844 -0.5625,4.3594 0,5.2032 5.48438,-0.5625 13.35938,-0.9844 19.26563,-0.9844 5.90625,0 12.79687,0.4219 18.28125,0.9844 0.5625,-0.8438 0.70312,-4.2188 0,-5.2032 -1.82813,-0.1406 -7.3125,-0.7031 -8.01563,-2.5312 -1.125,-2.8125 -1.125,-8.0156 -1.125,-13.2188 v -23.0625 c 0,-2.8125 6.75,-7.875 12.375,-7.875 7.45313,0 9.42188,9.7032 9.42188,19.8282 v 11.1093 c 0,6.0469 0,10.4063 -1.125,13.2188 -0.70313,1.8281 -5.48438,2.3906 -7.3125,2.5312 -0.70313,0.9844 -0.5625,4.3594 0,5.2032 5.48437,-0.5625 11.67187,-0.9844 17.57812,-0.9844 5.90625,0 13.78125,0.4219 19.26563,0.9844 0.5625,-0.8438 0.70312,-4.2188 0,-5.2032 -1.82813,-0.1406 -8.29688,-0.7031 -9,-2.5312 -1.125,-2.8125 -1.125,-7.1719 -1.125,-13.2188 v -9.1406 c 0,-22.2187 -3.09375,-33.1875 -19.125,-33.1875 z"
           style="font-weight:bold;font-family:Crimson;-inkscape-font-specification:'Crimson Bold'"
           id="path53851" />
      </g>
      <text
         xml:space="preserve"
         transform="matrix(0.27005481,0,0,0.27005481,44.386999,-37.484163)"
         id="text57032"
         style="font-style:normal;font-weight:normal;font-size:72px;line-height:1.25;font-family:sans-serif;white-space:pre;shape-inside:url(#rect57034);fill:#ffffff;fill-opacity:1;stroke:#ffffff"><tspan
           x="286.52734"
           y="805.11258"
           id="tspan2"><tspan
             style="font-family:Crimson;-inkscape-font-specification:Crimson"
             id="tspan1">Philosophy, Science, Mathematics</tspan></tspan></text>
      <g
         id="g92833"
         transform="translate(-19.63812,-6.168179)">
        <g
           id="g92611"
           transform="matrix(3.7710213,0,0,3.7710213,-52.41703,-18.08071)">
          <g
             id="g92595"
             transform="matrix(0.64330427,0,0,0.64330427,-8.4519113,14.373585)"
             style="opacity:0.99;stroke:#ffcc00">
            <ellipse
               style="fill:none;stroke:#ffcc00;stroke-width:0.481055;stroke-miterlimit:4;stroke-dasharray:none"
               id="ellipse92589"
               cx="84.223251"
               cy="9.8630028"
               rx="15.825913"
               ry="4.5682745"
               transform="rotate(30)" />
            <ellipse
               style="fill:none;stroke:#ffcc00;stroke-width:0.481061;stroke-miterlimit:4;stroke-dasharray:none"
               id="ellipse92591"
               cx="-50.653297"
               cy="68.008179"
               rx="15.826115"
               ry="4.5683327"
               transform="rotate(-90)" />
            <ellipse
               style="fill:none;stroke:#ffcc00;stroke-width:0.481055;stroke-miterlimit:4;stroke-dasharray:none"
               id="ellipse92593"
               cx="-33.570015"
               cy="77.870979"
               rx="15.825913"
               ry="4.5682745"
               transform="matrix(-0.8660254,0.5,0.5,0.8660254,0,0)" />
          </g>
          <g
             id="g92601"
             transform="translate(-14.815344,5.2571168)">
            <circle
               style="fill:#ffff00;stroke:#ffff00;stroke-width:0.264583;stroke-miterlimit:4;stroke-dasharray:none"
               id="circle92597"
               cx="50.074715"
               cy="41.570114"
               r="0.90866613" />
            <circle
               style="mix-blend-mode:normal;fill:#ffff00;stroke:#ffff00;stroke-width:0.31352;stroke-miterlimit:4;stroke-dasharray:none;filter:url(#filter2516)"
               id="circle92599"
               cx="50.105606"
               cy="41.599556"
               r="1.0767338" />
          </g>
          <g
             id="g92609"
             transform="matrix(0.64330427,0,0,0.64330427,-8.4519113,14.373585)"
             style="opacity:0.726945;stroke:#ffff00;stroke-opacity:1;filter:url(#filter3059)">
            <ellipse
               style="fill:none;stroke:#ffff00;stroke-width:0.481055;stroke-miterlimit:4;stroke-dasharray:none;stroke-opacity:1"
               id="ellipse92603"
               cx="84.223251"
               cy="9.8630028"
               rx="15.825913"
               ry="4.5682745"
               transform="rotate(30)" />
            <ellipse
               style="fill:none;stroke:#ffff00;stroke-width:0.481061;stroke-miterlimit:4;stroke-dasharray:none;stroke-opacity:1"
               id="ellipse92605"
               cx="-50.653297"
               cy="68.008179"
               rx="15.826115"
               ry="4.5683327"
               transform="rotate(-90)" />
            <ellipse
               style="fill:none;stroke:#ffff00;stroke-width:0.481055;stroke-miterlimit:4;stroke-dasharray:none;stroke-opacity:1"
               id="ellipse92607"
               cx="-33.570015"
               cy="77.870979"
               rx="15.825913"
               ry="4.5682745"
               transform="matrix(-0.8660254,0.5,0.5,0.8660254,0,0)" />
          </g>
        </g>
      </g>
      <g
         id="g93023"
         transform="translate(409.71767,-6.168179)">
        <g
           id="g93021"
           transform="matrix(3.7710213,0,0,3.7710213,-52.41703,-18.08071)">
          <g
             id="g93005"
             transform="matrix(0.64330427,0,0,0.64330427,-8.4519113,14.373585)"
             style="opacity:0.99;stroke:#ffcc00">
            <ellipse
               style="fill:none;stroke:#ffcc00;stroke-width:0.481055;stroke-miterlimit:4;stroke-dasharray:none"
               id="ellipse92999"
               cx="84.223251"
               cy="9.8630028"
               rx="15.825913"
               ry="4.5682745"
               transform="rotate(30)" />
            <ellipse
               style="fill:none;stroke:#ffcc00;stroke-width:0.481061;stroke-miterlimit:4;stroke-dasharray:none"
               id="ellipse93001"
               cx="-50.653297"
               cy="68.008179"
               rx="15.826115"
               ry="4.5683327"
               transform="rotate(-90)" />
            <ellipse
               style="fill:none;stroke:#ffcc00;stroke-width:0.481055;stroke-miterlimit:4;stroke-dasharray:none"
               id="ellipse93003"
               cx="-33.570015"
               cy="77.870979"
               rx="15.825913"
               ry="4.5682745"
               transform="matrix(-0.8660254,0.5,0.5,0.8660254,0,0)" />
          </g>
          <g
             id="g93011"
             transform="translate(-14.815344,5.2571168)">
            <circle
               style="fill:#ffff00;stroke:#ffff00;stroke-width:0.264583;stroke-miterlimit:4;stroke-dasharray:none"
               id="circle93007"
               cx="50.074715"
               cy="41.570114"
               r="0.90866613" />
            <circle
               style="mix-blend-mode:normal;fill:#ffff00;stroke:#ffff00;stroke-width:0.31352;stroke-miterlimit:4;stroke-dasharray:none;filter:url(#filter2516)"
               id="circle93009"
               cx="50.105606"
               cy="41.599556"
               r="1.0767338" />
          </g>
          <g
             id="g93019"
             transform="matrix(0.64330427,0,0,0.64330427,-8.4519113,14.373585)"
             style="opacity:0.726945;stroke:#ffff00;stroke-opacity:1;filter:url(#filter3059)">
            <ellipse
               style="fill:none;stroke:#ffff00;stroke-width:0.481055;stroke-miterlimit:4;stroke-dasharray:none;stroke-opacity:1"
               id="ellipse93013"
               cx="84.223251"
               cy="9.8630028"
               rx="15.825913"
               ry="4.5682745"
               transform="rotate(30)" />
            <ellipse
               style="fill:none;stroke:#ffff00;stroke-width:0.481061;stroke-miterlimit:4;stroke-dasharray:none;stroke-opacity:1"
               id="ellipse93015"
               cx="-50.653297"
               cy="68.008179"
               rx="15.826115"
               ry="4.5683327"
               transform="rotate(-90)" />
            <ellipse
               style="fill:none;stroke:#ffff00;stroke-width:0.481055;stroke-miterlimit:4;stroke-dasharray:none;stroke-opacity:1"
               id="ellipse93017"
               cx="-33.570015"
               cy="77.870979"
               rx="15.825913"
               ry="4.5682745"
               transform="matrix(-0.8660254,0.5,0.5,0.8660254,0,0)" />
          </g>
        </g>
      </g>
    </g>
  </g>
</svg>
